<svg xmlns="http://www.w3.org/2000/svg" xmlns:xlink="http://www.w3.org/1999/xlink">
<defs>
<symbol id="icon-menu" viewBox="0 0 32 32">
<path fill="currentColor" d="M5 24c0-0.552 0.448-1 1-1v0h20c0.552 0 1 0.448 1 1s-0.448 1-1 1v0h-20c-0.552 0-1-0.448-1-1v0zM5 16c0-0.552 0.448-1 1-1v0h20c0.552 0 1 0.448 1 1s-0.448 1-1 1v0h-20c-0.552 0-1-0.448-1-1v0zM5 8c0-0.552 0.448-1 1-1v0h20c0.552 0 1 0.448 1 1s-0.448 1-1 1v0h-20c-0.552 0-1-0.448-1-1v0z"></path>
</symbol>
<symbol id="icon-rocket" viewBox="0 0 32 32">
<path fill="currentColor" d="M19.504 12.386c1.198 1.2 3.46 0.874 5.056-0.724s1.92-3.864 0.724-5.062c-1.198-1.2-3.46-0.876-5.056 0.722-1.596 1.6-1.92 3.866-0.724 5.064z"></path>
<path fill="currentColor" d="M31.622 6.624c-0.726 3.068-2.668 7.252-7.28 12.436l-0.48 4.816c-0.137 1.201-0.67 2.256-1.464 3.052l0-0-4.764 4.772c-0.185 0.187-0.442 0.303-0.725 0.303-0.563 0-1.020-0.457-1.020-1.020 0-0.053 0.004-0.105 0.012-0.156l-0.001 0.006 0.54-3.798c0.080-0.56-0.026-1.186-0.262-1.912-0.19-0.569-0.358-1.004-0.543-1.431l0.045 0.117-0.164-0.404c-1.63-0.394-3.156-1.324-4.382-2.554-1.228-1.23-2.158-2.758-2.55-4.39l-0.406-0.166c-0.296-0.133-0.729-0.301-1.17-0.454l-0.14-0.042c-0.726-0.238-1.35-0.344-1.91-0.264l-3.792 0.54c-0.045 0.007-0.096 0.011-0.148 0.011-0.563 0-1.020-0.457-1.020-1.020 0-0.283 0.116-0.54 0.302-0.725l0-0 4.764-4.772c0.82-0.82 1.894-1.34 3.048-1.468h0.012l4.8-0.476c5.086-4.524 9.25-6.46 12.322-7.208 1.78-0.434 3.18-0.464 4.16-0.376 0.488 0.046 0.87 0.12 1.14 0.186q0.2 0.052 0.32 0.090c0.368 0.12 0.558 0.26 0.702 0.59l0.058 0.146c0.144 0.417 0.254 0.905 0.311 1.41l0.003 0.032c0.11 0.97 0.102 2.356-0.318 4.13zM21.966 21.574l0.080-0.080-0.214 2.162c-0.084 0.718-0.405 1.35-0.88 1.826l-2.596 2.6 0.108-0.76c0.144-1.012-0.068-1.986-0.344-2.836-0.141-0.428-0.252-0.727-0.371-1.021l0.043 0.121c1.476-0.13 2.924-0.76 4.174-2.012zM10.41 10c-1.25 1.252-1.88 2.702-2.008 4.18-0.173-0.076-0.472-0.187-0.773-0.29l-0.127-0.038c-0.848-0.276-1.82-0.488-2.832-0.344l-0.76 0.108 2.6-2.6c0.49-0.492 1.132-0.802 1.82-0.88l2.16-0.214zM29.222 2.078c-0.76-0.068-1.934-0.054-3.492 0.326-3.116 0.76-7.834 2.992-13.874 9.042-1.24 1.24-1.598 2.68-1.374 4.102 0.214 1.352 0.966 2.724 2.096 3.856 1.128 1.13 2.5 1.882 3.848 2.098 1.42 0.224 2.858-0.134 4.096-1.376 6.158-6.166 8.384-10.888 9.112-13.974 0.366-1.542 0.36-2.69 0.276-3.426-0.025-0.223-0.056-0.416-0.097-0.605l0.007 0.039c-0.164-0.033-0.369-0.062-0.577-0.080l-0.023-0.002z"></path>
<path fill="currentColor" d="M14.018 24.278c-1.383-0.754-2.57-1.653-3.606-2.702l-0.002-0.002c-1.111-1.102-2.052-2.372-2.782-3.77l-0.040-0.084c-2.204 1.984-3.93 10.108-3.678 10.36 0.25 0.252 7.872-1.792 10.108-3.804z"></path>
</symbol>
<symbol id="icon-play" viewBox="0 0 32 32">
<path fill="currentColor" d="M21.608 16l-11.608-6.734v13.468zM23.192 14.608c0.486 0.282 0.807 0.799 0.807 1.392s-0.321 1.11-0.799 1.388l-0.008 0.004-12.726 7.384c-1.040 0.604-2.466-0.086-2.466-1.392v-14.768c0-1.306 1.426-1.996 2.466-1.392z"></path>
</symbol>
<symbol id="icon-twitter-x" viewBox="0 0 32 32">
<path fill="currentColor" d="M25.2 1.5h4.908l-10.72 12.284 12.612 16.716h-9.874l-7.734-10.14-8.85 10.14h-4.91l11.466-13.14-12.098-15.86h10.126l6.99 9.266 8.086-9.266zM23.48 27.556h2.72l-17.554-23.266h-2.916z"></path>
</symbol>
<symbol id="icon-instagram" viewBox="0 0 32 32">
<path fill="currentColor" d="M16 0c-4.342 0-4.888 0.020-6.594 0.096-1.706 0.080-2.868 0.348-3.886 0.744-1.11 0.423-2.055 1.051-2.833 1.845l-0.001 0.001c-0.795 0.779-1.423 1.724-1.828 2.781l-0.018 0.053c-0.396 1.016-0.666 2.18-0.744 3.88-0.076 1.71-0.096 2.254-0.096 6.602 0 4.344 0.020 4.888 0.096 6.594 0.080 1.704 0.348 2.866 0.744 3.884 0.41 1.052 0.956 1.944 1.846 2.834 0.888 0.89 1.78 1.438 2.832 1.846 1.020 0.396 2.18 0.666 3.884 0.744 1.708 0.076 2.252 0.096 6.598 0.096s4.888-0.020 6.596-0.096c1.702-0.080 2.868-0.348 3.886-0.744 1.109-0.423 2.054-1.051 2.831-1.845l0.001-0.001c0.89-0.89 1.436-1.782 1.846-2.834 0.394-1.018 0.664-2.18 0.744-3.884 0.076-1.706 0.096-2.25 0.096-6.596s-0.020-4.89-0.096-6.598c-0.080-1.702-0.35-2.866-0.744-3.882-0.423-1.11-1.051-2.055-1.845-2.833l-0.001-0.001c-0.779-0.795-1.724-1.423-2.781-1.828l-0.053-0.018c-1.020-0.396-2.184-0.666-3.886-0.744-1.708-0.076-2.25-0.096-6.598-0.096zM14.566 2.884h1.436c4.272 0 4.778 0.014 6.464 0.092 1.56 0.070 2.408 0.332 2.972 0.55 0.746 0.29 1.28 0.638 1.84 1.198s0.906 1.092 1.196 1.84c0.22 0.562 0.48 1.41 0.55 2.97 0.078 1.686 0.094 2.192 0.094 6.462s-0.016 4.778-0.094 6.464c-0.070 1.56-0.332 2.406-0.55 2.97-0.273 0.72-0.681 1.334-1.197 1.837l-0.001 0.001c-0.56 0.56-1.092 0.906-1.84 1.196-0.56 0.22-1.408 0.48-2.97 0.552-1.686 0.076-2.192 0.094-6.464 0.094s-4.78-0.018-6.466-0.094c-1.56-0.072-2.406-0.332-2.97-0.552-0.721-0.272-1.335-0.679-1.839-1.195l-0.001-0.001c-0.518-0.504-0.927-1.119-1.189-1.806l-0.011-0.034c-0.218-0.562-0.48-1.41-0.55-2.97-0.076-1.686-0.092-2.192-0.092-6.466s0.016-4.776 0.092-6.462c0.072-1.56 0.332-2.408 0.552-2.972 0.29-0.746 0.638-1.28 1.198-1.84s1.092-0.906 1.84-1.196c0.564-0.22 1.41-0.48 2.97-0.552 1.476-0.068 2.048-0.088 5.030-0.090zM24.542 5.54c-1.060 0-1.92 0.86-1.92 1.92s0.86 1.92 1.92 1.92v0c1.060 0 1.92-0.86 1.92-1.92s-0.86-1.92-1.92-1.92v0zM16.002 7.784c-0.038-0.001-0.083-0.001-0.128-0.001-4.539 0-8.218 3.679-8.218 8.218s3.679 8.218 8.218 8.218c0.045 0 0.090-0 0.135-0.001l-0.007 0c4.483-0.072 8.090-3.723 8.090-8.217s-3.607-8.145-8.083-8.217l-0.007-0zM16.002 10.666c2.946 0 5.334 2.388 5.334 5.334s-2.388 5.334-5.334 5.334v0c-2.946 0-5.334-2.388-5.334-5.334s2.388-5.334 5.334-5.334v0z"></path>
</symbol>
<symbol id="icon-facebook" viewBox="0 0 32 32">
<path fill="currentColor" d="M32 16.098c0-8.892-7.164-16.1-16-16.1-8.84 0.002-16.004 7.208-16.004 16.102 0 8.034 5.852 14.694 13.5 15.902v-11.25h-4.060v-4.652h4.064v-3.55c0-4.034 2.39-6.262 6.044-6.262 1.752 0 3.582 0.314 3.582 0.314v3.96h-2.018c-1.986 0-2.606 1.242-2.606 2.516v3.020h4.436l-0.708 4.652h-3.73v11.25c7.648-1.208 13.5-7.868 13.5-15.902z"></path>
</symbol>
<symbol id="icon-check" viewBox="0 0 32 32">
<path fill="currentColor" d="M27.708 7.292c0.181 0.181 0.294 0.431 0.294 0.708s-0.112 0.527-0.294 0.708l-14 14c-0.181 0.181-0.431 0.294-0.708 0.294s-0.527-0.112-0.708-0.294l-7-7c-0.181-0.181-0.293-0.431-0.293-0.708 0-0.553 0.448-1.001 1.001-1.001 0.277 0 0.527 0.112 0.708 0.293v0l6.292 6.294 13.292-13.294c0.181-0.181 0.431-0.294 0.708-0.294s0.527 0.112 0.708 0.294l0 0z"></path>
</symbol>
<symbol id="icon-user" viewBox="0 0 32 32">
<path fill="currentColor" d="M16 16c3.314 0 6-2.686 6-6s-2.686-6-6-6v0c-3.314 0-6 2.686-6 6s2.686 6 6 6v0zM20 10c0 2.209-1.791 4-4 4s-4-1.791-4-4v0c0-2.209 1.791-4 4-4s4 1.791 4 4v0zM28 26c0 2-2 2-2 2h-20s-2 0-2-2 2-8 12-8 12 6 12 8zM26 25.992c-0.002-0.492-0.308-1.972-1.664-3.328-1.304-1.304-3.758-2.664-8.336-2.664s-7.032 1.36-8.336 2.664c-1.356 1.356-1.66 2.836-1.664 3.328z"></path>
</symbol>
<symbol id="icon-package" viewBox="0 0 32 32">
<path fill="currentColor" d="M16.372 2.226c-0.11-0.045-0.238-0.072-0.372-0.072s-0.262 0.026-0.379 0.074l0.007-0.002-11.936 4.774 4.808 1.922 12.308-4.922zM23.5 5.078l-12.308 4.922 4.808 1.922 12.308-4.922zM30 8.478l-13 5.2v15.844l13-5.2v-15.842zM15 29.524v-15.848l-13-5.198v15.846zM14.886 0.368c0.33-0.136 0.713-0.214 1.114-0.214s0.784 0.079 1.134 0.222l-0.020-0.007 14.258 5.704c0.371 0.152 0.628 0.51 0.628 0.928v0 17.324c-0.001 0.837-0.515 1.553-1.245 1.851l-0.013 0.005-14.37 5.748c-0.11 0.045-0.238 0.072-0.372 0.072s-0.262-0.026-0.379-0.074l0.007 0.002-14.368-5.748c-0.744-0.302-1.259-1.019-1.26-1.856v-17.324c0-0.418 0.257-0.776 0.621-0.926l0.007-0.002z"></path>
</symbol>
<symbol id="icon-shopping-cart" viewBox="0 0 32 32">
<path fill="currentColor" d="M0 3c0-0.552 0.448-1 1-1v0h3c0.466 0 0.858 0.319 0.968 0.751l0.002 0.007 0.81 3.242h23.22c0.552 0 0.999 0.448 0.999 1 0 0.069-0.007 0.137-0.020 0.202l0.001-0.006-2 10c-0.092 0.445-0.469 0.778-0.928 0.802l-0.002 0-18.794 0.944 0.574 3.058h17.17c0.552 0 1 0.448 1 1s-0.448 1-1 1v0h-18c-0.487-0-0.892-0.349-0.981-0.81l-0.001-0.006-2.998-15.97-0.8-3.214h-2.22c-0.552 0-1-0.448-1-1v0zM6.204 8l1.68 8.958 18.288-0.918 1.608-8.040zM10 24c-2.209 0-4 1.791-4 4s1.791 4 4 4v0c2.209 0 4-1.791 4-4s-1.791-4-4-4v0zM24 24c-2.209 0-4 1.791-4 4s1.791 4 4 4v0c2.209 0 4-1.791 4-4s-1.791-4-4-4v0zM10 26c1.105 0 2 0.895 2 2s-0.895 2-2 2v0c-1.105 0-2-0.895-2-2s0.895-2 2-2v0zM24 26c1.105 0 2 0.895 2 2s-0.895 2-2 2v0c-1.105 0-2-0.895-2-2s0.895-2 2-2v0z"></path>
</symbol>
</defs>
</svg>
